<?xml version="1.0" encoding="utf-8" standalone="no"?>
<!DOCTYPE svg PUBLIC "-//W3C//DTD SVG 1.1//EN"
  "http://www.w3.org/Graphics/SVG/1.1/DTD/svg11.dtd">
<svg height="345.6pt" version="1.1" viewBox="0 0 460.8 345.6" width="460.8pt" xmlns="http://www.w3.org/2000/svg" xmlns:xlink="http://www.w3.org/1999/xlink">
 <metadata>
  <rdf:RDF xmlns:cc="http://creativecommons.org/ns#" xmlns:dc="http://purl.org/dc/elements/1.1/" xmlns:rdf="http://www.w3.org/1999/02/22-rdf-syntax-ns#">
   <cc:Work>
    <dc:type rdf:resource="http://purl.org/dc/dcmitype/StillImage"/>
    <dc:date>2022-10-02T20:54:07.280730</dc:date>
    <dc:format>image/svg+xml</dc:format>
    <dc:creator>
     <cc:Agent>
      <dc:title>Matplotlib v3.4.3, https://matplotlib.org/</dc:title>
     </cc:Agent>
    </dc:creator>
   </cc:Work>
  </rdf:RDF>
 </metadata>
 <defs>
  <style type="text/css">*{stroke-linecap:butt;stroke-linejoin:round;}</style>
 </defs>
 <g id="figure_1">
  <g id="patch_1">
   <path d="M 0 345.6 
L 460.8 345.6 
L 460.8 0 
L 0 0 
z
" style="fill:#ffffff;"/>
  </g>
  <g id="axes_1">
   <g id="patch_2">
    <path d="M 57.6 307.584 
L 414.72 307.584 
L 414.72 41.472 
L 57.6 41.472 
z
" style="fill:#ffffff;"/>
   </g>
   <g id="LineCollection_1">
    <path clip-path="url(#pb4a259e70f)" d="M 203.129996 173.085778 
L 88.589752 284.491636 
" style="fill:none;stroke:#000000;"/>
    <path clip-path="url(#pb4a259e70f)" d="M 203.129996 173.085778 
L 223.761058 134.742536 
" style="fill:none;stroke:#000000;"/>
    <path clip-path="url(#pb4a259e70f)" d="M 203.129996 173.085778 
L 124.715249 136.956533 
" style="fill:none;stroke:#000000;"/>
    <path clip-path="url(#pb4a259e70f)" d="M 203.129996 173.085778 
L 236.437251 99.809311 
" style="fill:none;stroke:#000000;"/>
    <path clip-path="url(#pb4a259e70f)" d="M 203.129996 173.085778 
L 316.169216 149.973458 
" style="fill:none;stroke:#000000;"/>
    <path clip-path="url(#pb4a259e70f)" d="M 203.129996 173.085778 
L 176.37392 114.953632 
" style="fill:none;stroke:#000000;"/>
    <path clip-path="url(#pb4a259e70f)" d="M 203.129996 173.085778 
L 287.371081 172.549708 
" style="fill:none;stroke:#000000;"/>
    <path clip-path="url(#pb4a259e70f)" d="M 203.129996 173.085778 
L 270.727743 84.91149 
" style="fill:none;stroke:#000000;"/>
    <path clip-path="url(#pb4a259e70f)" d="M 203.129996 173.085778 
L 262.764597 140.05615 
" style="fill:none;stroke:#000000;"/>
    <path clip-path="url(#pb4a259e70f)" d="M 203.129996 173.085778 
L 154.676994 203.298848 
" style="fill:none;stroke:#000000;"/>
    <path clip-path="url(#pb4a259e70f)" d="M 203.129996 173.085778 
L 132.729357 80.470501 
" style="fill:none;stroke:#000000;"/>
    <path clip-path="url(#pb4a259e70f)" d="M 203.129996 173.085778 
L 383.730248 174.85793 
" style="fill:none;stroke:#000000;"/>
    <path clip-path="url(#pb4a259e70f)" d="M 203.129996 173.085778 
L 259.693539 235.361128 
" style="fill:none;stroke:#000000;"/>
    <path clip-path="url(#pb4a259e70f)" d="M 223.761058 134.742536 
L 176.37392 114.953632 
" style="fill:none;stroke:#000000;"/>
    <path clip-path="url(#pb4a259e70f)" d="M 223.761058 134.742536 
L 287.371081 172.549708 
" style="fill:none;stroke:#000000;"/>
    <path clip-path="url(#pb4a259e70f)" d="M 223.761058 134.742536 
L 270.727743 84.91149 
" style="fill:none;stroke:#000000;"/>
    <path clip-path="url(#pb4a259e70f)" d="M 223.761058 134.742536 
L 251.009394 176.205098 
" style="fill:none;stroke:#000000;"/>
    <path clip-path="url(#pb4a259e70f)" d="M 223.761058 134.742536 
L 262.764597 140.05615 
" style="fill:none;stroke:#000000;"/>
    <path clip-path="url(#pb4a259e70f)" d="M 223.761058 134.742536 
L 351.46557 104.623496 
" style="fill:none;stroke:#000000;"/>
    <path clip-path="url(#pb4a259e70f)" d="M 223.761058 134.742536 
L 154.676994 203.298848 
" style="fill:none;stroke:#000000;"/>
    <path clip-path="url(#pb4a259e70f)" d="M 223.761058 134.742536 
L 159.934232 158.289801 
" style="fill:none;stroke:#000000;"/>
    <path clip-path="url(#pb4a259e70f)" d="M 223.761058 134.742536 
L 132.729357 80.470501 
" style="fill:none;stroke:#000000;"/>
    <path clip-path="url(#pb4a259e70f)" d="M 223.761058 134.742536 
L 217.428922 64.564364 
" style="fill:none;stroke:#000000;"/>
    <path clip-path="url(#pb4a259e70f)" d="M 223.761058 134.742536 
L 334.643921 219.963243 
" style="fill:none;stroke:#000000;"/>
    <path clip-path="url(#pb4a259e70f)" d="M 124.715249 136.956533 
L 176.37392 114.953632 
" style="fill:none;stroke:#000000;"/>
    <path clip-path="url(#pb4a259e70f)" d="M 124.715249 136.956533 
L 287.371081 172.549708 
" style="fill:none;stroke:#000000;"/>
    <path clip-path="url(#pb4a259e70f)" d="M 124.715249 136.956533 
L 251.009394 176.205098 
" style="fill:none;stroke:#000000;"/>
    <path clip-path="url(#pb4a259e70f)" d="M 124.715249 136.956533 
L 154.676994 203.298848 
" style="fill:none;stroke:#000000;"/>
    <path clip-path="url(#pb4a259e70f)" d="M 124.715249 136.956533 
L 159.934232 158.289801 
" style="fill:none;stroke:#000000;"/>
    <path clip-path="url(#pb4a259e70f)" d="M 124.715249 136.956533 
L 132.729357 80.470501 
" style="fill:none;stroke:#000000;"/>
    <path clip-path="url(#pb4a259e70f)" d="M 124.715249 136.956533 
L 217.428922 64.564364 
" style="fill:none;stroke:#000000;"/>
    <path clip-path="url(#pb4a259e70f)" d="M 236.437251 99.809311 
L 176.37392 114.953632 
" style="fill:none;stroke:#000000;"/>
    <path clip-path="url(#pb4a259e70f)" d="M 236.437251 99.809311 
L 287.371081 172.549708 
" style="fill:none;stroke:#000000;"/>
    <path clip-path="url(#pb4a259e70f)" d="M 236.437251 99.809311 
L 270.727743 84.91149 
" style="fill:none;stroke:#000000;"/>
    <path clip-path="url(#pb4a259e70f)" d="M 236.437251 99.809311 
L 251.009394 176.205098 
" style="fill:none;stroke:#000000;"/>
    <path clip-path="url(#pb4a259e70f)" d="M 236.437251 99.809311 
L 351.46557 104.623496 
" style="fill:none;stroke:#000000;"/>
    <path clip-path="url(#pb4a259e70f)" d="M 236.437251 99.809311 
L 132.729357 80.470501 
" style="fill:none;stroke:#000000;"/>
    <path clip-path="url(#pb4a259e70f)" d="M 316.169216 149.973458 
L 176.37392 114.953632 
" style="fill:none;stroke:#000000;"/>
    <path clip-path="url(#pb4a259e70f)" d="M 316.169216 149.973458 
L 287.371081 172.549708 
" style="fill:none;stroke:#000000;"/>
    <path clip-path="url(#pb4a259e70f)" d="M 316.169216 149.973458 
L 262.764597 140.05615 
" style="fill:none;stroke:#000000;"/>
    <path clip-path="url(#pb4a259e70f)" d="M 316.169216 149.973458 
L 351.46557 104.623496 
" style="fill:none;stroke:#000000;"/>
    <path clip-path="url(#pb4a259e70f)" d="M 316.169216 149.973458 
L 217.428922 64.564364 
" style="fill:none;stroke:#000000;"/>
    <path clip-path="url(#pb4a259e70f)" d="M 316.169216 149.973458 
L 383.730248 174.85793 
" style="fill:none;stroke:#000000;"/>
    <path clip-path="url(#pb4a259e70f)" d="M 316.169216 149.973458 
L 259.693539 235.361128 
" style="fill:none;stroke:#000000;"/>
    <path clip-path="url(#pb4a259e70f)" d="M 316.169216 149.973458 
L 370.375411 128.853569 
" style="fill:none;stroke:#000000;"/>
    <path clip-path="url(#pb4a259e70f)" d="M 316.169216 149.973458 
L 334.643921 219.963243 
" style="fill:none;stroke:#000000;"/>
    <path clip-path="url(#pb4a259e70f)" d="M 176.37392 114.953632 
L 270.727743 84.91149 
" style="fill:none;stroke:#000000;"/>
    <path clip-path="url(#pb4a259e70f)" d="M 176.37392 114.953632 
L 251.009394 176.205098 
" style="fill:none;stroke:#000000;"/>
    <path clip-path="url(#pb4a259e70f)" d="M 176.37392 114.953632 
L 159.934232 158.289801 
" style="fill:none;stroke:#000000;"/>
    <path clip-path="url(#pb4a259e70f)" d="M 287.371081 172.549708 
L 270.727743 84.91149 
" style="fill:none;stroke:#000000;"/>
    <path clip-path="url(#pb4a259e70f)" d="M 287.371081 172.549708 
L 251.009394 176.205098 
" style="fill:none;stroke:#000000;"/>
    <path clip-path="url(#pb4a259e70f)" d="M 287.371081 172.549708 
L 262.764597 140.05615 
" style="fill:none;stroke:#000000;"/>
    <path clip-path="url(#pb4a259e70f)" d="M 287.371081 172.549708 
L 383.730248 174.85793 
" style="fill:none;stroke:#000000;"/>
    <path clip-path="url(#pb4a259e70f)" d="M 287.371081 172.549708 
L 259.693539 235.361128 
" style="fill:none;stroke:#000000;"/>
    <path clip-path="url(#pb4a259e70f)" d="M 287.371081 172.549708 
L 334.643921 219.963243 
" style="fill:none;stroke:#000000;"/>
    <path clip-path="url(#pb4a259e70f)" d="M 270.727743 84.91149 
L 132.729357 80.470501 
" style="fill:none;stroke:#000000;"/>
    <path clip-path="url(#pb4a259e70f)" d="M 270.727743 84.91149 
L 217.428922 64.564364 
" style="fill:none;stroke:#000000;"/>
    <path clip-path="url(#pb4a259e70f)" d="M 270.727743 84.91149 
L 370.375411 128.853569 
" style="fill:none;stroke:#000000;"/>
    <path clip-path="url(#pb4a259e70f)" d="M 251.009394 176.205098 
L 262.764597 140.05615 
" style="fill:none;stroke:#000000;"/>
    <path clip-path="url(#pb4a259e70f)" d="M 251.009394 176.205098 
L 351.46557 104.623496 
" style="fill:none;stroke:#000000;"/>
    <path clip-path="url(#pb4a259e70f)" d="M 251.009394 176.205098 
L 154.676994 203.298848 
" style="fill:none;stroke:#000000;"/>
    <path clip-path="url(#pb4a259e70f)" d="M 251.009394 176.205098 
L 383.730248 174.85793 
" style="fill:none;stroke:#000000;"/>
    <path clip-path="url(#pb4a259e70f)" d="M 251.009394 176.205098 
L 259.693539 235.361128 
" style="fill:none;stroke:#000000;"/>
    <path clip-path="url(#pb4a259e70f)" d="M 251.009394 176.205098 
L 334.643921 219.963243 
" style="fill:none;stroke:#000000;"/>
    <path clip-path="url(#pb4a259e70f)" d="M 262.764597 140.05615 
L 351.46557 104.623496 
" style="fill:none;stroke:#000000;"/>
    <path clip-path="url(#pb4a259e70f)" d="M 262.764597 140.05615 
L 154.676994 203.298848 
" style="fill:none;stroke:#000000;"/>
    <path clip-path="url(#pb4a259e70f)" d="M 262.764597 140.05615 
L 159.934232 158.289801 
" style="fill:none;stroke:#000000;"/>
    <path clip-path="url(#pb4a259e70f)" d="M 262.764597 140.05615 
L 217.428922 64.564364 
" style="fill:none;stroke:#000000;"/>
    <path clip-path="url(#pb4a259e70f)" d="M 262.764597 140.05615 
L 370.375411 128.853569 
" style="fill:none;stroke:#000000;"/>
    <path clip-path="url(#pb4a259e70f)" d="M 351.46557 104.623496 
L 383.730248 174.85793 
" style="fill:none;stroke:#000000;"/>
    <path clip-path="url(#pb4a259e70f)" d="M 154.676994 203.298848 
L 159.934232 158.289801 
" style="fill:none;stroke:#000000;"/>
    <path clip-path="url(#pb4a259e70f)" d="M 154.676994 203.298848 
L 259.693539 235.361128 
" style="fill:none;stroke:#000000;"/>
    <path clip-path="url(#pb4a259e70f)" d="M 159.934232 158.289801 
L 370.375411 128.853569 
" style="fill:none;stroke:#000000;"/>
    <path clip-path="url(#pb4a259e70f)" d="M 383.730248 174.85793 
L 370.375411 128.853569 
" style="fill:none;stroke:#000000;"/>
    <path clip-path="url(#pb4a259e70f)" d="M 259.693539 235.361128 
L 334.643921 219.963243 
" style="fill:none;stroke:#000000;"/>
   </g>
   <g id="matplotlib.axis_1">
    <g id="xtick_1"/>
    <g id="xtick_2"/>
    <g id="xtick_3"/>
    <g id="xtick_4"/>
    <g id="xtick_5"/>
    <g id="xtick_6"/>
    <g id="xtick_7"/>
    <g id="xtick_8"/>
   </g>
   <g id="matplotlib.axis_2">
    <g id="ytick_1"/>
    <g id="ytick_2"/>
    <g id="ytick_3"/>
    <g id="ytick_4"/>
    <g id="ytick_5"/>
    <g id="ytick_6"/>
    <g id="ytick_7"/>
    <g id="ytick_8"/>
   </g>
   <g id="PathCollection_1">
    <defs>
     <path d="M 0 8.660254 
C 2.296726 8.660254 4.499694 7.747755 6.123724 6.123724 
C 7.747755 4.499694 8.660254 2.296726 8.660254 0 
C 8.660254 -2.296726 7.747755 -4.499694 6.123724 -6.123724 
C 4.499694 -7.747755 2.296726 -8.660254 0 -8.660254 
C -2.296726 -8.660254 -4.499694 -7.747755 -6.123724 -6.123724 
C -7.747755 -4.499694 -8.660254 -2.296726 -8.660254 0 
C -8.660254 2.296726 -7.747755 4.499694 -6.123724 6.123724 
C -4.499694 7.747755 -2.296726 8.660254 0 8.660254 
z
" id="mf88bf2e479" style="stroke:#1f78b4;"/>
    </defs>
    <g clip-path="url(#pb4a259e70f)">
     <use style="fill:#1f78b4;stroke:#1f78b4;" x="203.129996" xlink:href="#mf88bf2e479" y="173.085778"/>
     <use style="fill:#1f78b4;stroke:#1f78b4;" x="88.589752" xlink:href="#mf88bf2e479" y="284.491636"/>
     <use style="fill:#1f78b4;stroke:#1f78b4;" x="223.761058" xlink:href="#mf88bf2e479" y="134.742536"/>
     <use style="fill:#1f78b4;stroke:#1f78b4;" x="124.715249" xlink:href="#mf88bf2e479" y="136.956533"/>
     <use style="fill:#1f78b4;stroke:#1f78b4;" x="236.437251" xlink:href="#mf88bf2e479" y="99.809311"/>
     <use style="fill:#1f78b4;stroke:#1f78b4;" x="316.169216" xlink:href="#mf88bf2e479" y="149.973458"/>
     <use style="fill:#1f78b4;stroke:#1f78b4;" x="176.37392" xlink:href="#mf88bf2e479" y="114.953632"/>
     <use style="fill:#1f78b4;stroke:#1f78b4;" x="287.371081" xlink:href="#mf88bf2e479" y="172.549708"/>
     <use style="fill:#1f78b4;stroke:#1f78b4;" x="270.727743" xlink:href="#mf88bf2e479" y="84.91149"/>
     <use style="fill:#1f78b4;stroke:#1f78b4;" x="251.009394" xlink:href="#mf88bf2e479" y="176.205098"/>
     <use style="fill:#1f78b4;stroke:#1f78b4;" x="262.764597" xlink:href="#mf88bf2e479" y="140.05615"/>
     <use style="fill:#1f78b4;stroke:#1f78b4;" x="351.46557" xlink:href="#mf88bf2e479" y="104.623496"/>
     <use style="fill:#1f78b4;stroke:#1f78b4;" x="154.676994" xlink:href="#mf88bf2e479" y="203.298848"/>
     <use style="fill:#1f78b4;stroke:#1f78b4;" x="159.934232" xlink:href="#mf88bf2e479" y="158.289801"/>
     <use style="fill:#1f78b4;stroke:#1f78b4;" x="132.729357" xlink:href="#mf88bf2e479" y="80.470501"/>
     <use style="fill:#1f78b4;stroke:#1f78b4;" x="217.428922" xlink:href="#mf88bf2e479" y="64.564364"/>
     <use style="fill:#1f78b4;stroke:#1f78b4;" x="383.730248" xlink:href="#mf88bf2e479" y="174.85793"/>
     <use style="fill:#1f78b4;stroke:#1f78b4;" x="259.693539" xlink:href="#mf88bf2e479" y="235.361128"/>
     <use style="fill:#1f78b4;stroke:#1f78b4;" x="370.375411" xlink:href="#mf88bf2e479" y="128.853569"/>
     <use style="fill:#1f78b4;stroke:#1f78b4;" x="334.643921" xlink:href="#mf88bf2e479" y="219.963243"/>
    </g>
   </g>
   <g id="patch_3">
    <path d="M 57.6 307.584 
L 57.6 41.472 
" style="fill:none;stroke:#000000;stroke-linecap:square;stroke-linejoin:miter;stroke-width:0.8;"/>
   </g>
   <g id="patch_4">
    <path d="M 414.72 307.584 
L 414.72 41.472 
" style="fill:none;stroke:#000000;stroke-linecap:square;stroke-linejoin:miter;stroke-width:0.8;"/>
   </g>
   <g id="patch_5">
    <path d="M 57.6 307.584 
L 414.72 307.584 
" style="fill:none;stroke:#000000;stroke-linecap:square;stroke-linejoin:miter;stroke-width:0.8;"/>
   </g>
   <g id="patch_6">
    <path d="M 57.6 41.472 
L 414.72 41.472 
" style="fill:none;stroke:#000000;stroke-linecap:square;stroke-linejoin:miter;stroke-width:0.8;"/>
   </g>
   <g id="text_1">
    <g clip-path="url(#pb4a259e70f)">
     <!-- 0 -->
     <g transform="translate(199.312496 176.397028)scale(0.12 -0.12)">
      <defs>
       <path d="M 2034 4250 
Q 1547 4250 1301 3770 
Q 1056 3291 1056 2328 
Q 1056 1369 1301 889 
Q 1547 409 2034 409 
Q 2525 409 2770 889 
Q 3016 1369 3016 2328 
Q 3016 3291 2770 3770 
Q 2525 4250 2034 4250 
z
M 2034 4750 
Q 2819 4750 3233 4129 
Q 3647 3509 3647 2328 
Q 3647 1150 3233 529 
Q 2819 -91 2034 -91 
Q 1250 -91 836 529 
Q 422 1150 422 2328 
Q 422 3509 836 4129 
Q 1250 4750 2034 4750 
z
" id="DejaVuSans-30" transform="scale(0.015625)"/>
      </defs>
      <use xlink:href="#DejaVuSans-30"/>
     </g>
    </g>
   </g>
   <g id="text_2">
    <g clip-path="url(#pb4a259e70f)">
     <!-- 1 -->
     <g transform="translate(84.772252 287.802886)scale(0.12 -0.12)">
      <defs>
       <path d="M 794 531 
L 1825 531 
L 1825 4091 
L 703 3866 
L 703 4441 
L 1819 4666 
L 2450 4666 
L 2450 531 
L 3481 531 
L 3481 0 
L 794 0 
L 794 531 
z
" id="DejaVuSans-31" transform="scale(0.015625)"/>
      </defs>
      <use xlink:href="#DejaVuSans-31"/>
     </g>
    </g>
   </g>
   <g id="text_3">
    <g clip-path="url(#pb4a259e70f)">
     <!-- 2 -->
     <g transform="translate(219.943558 138.053786)scale(0.12 -0.12)">
      <defs>
       <path d="M 1228 531 
L 3431 531 
L 3431 0 
L 469 0 
L 469 531 
Q 828 903 1448 1529 
Q 2069 2156 2228 2338 
Q 2531 2678 2651 2914 
Q 2772 3150 2772 3378 
Q 2772 3750 2511 3984 
Q 2250 4219 1831 4219 
Q 1534 4219 1204 4116 
Q 875 4013 500 3803 
L 500 4441 
Q 881 4594 1212 4672 
Q 1544 4750 1819 4750 
Q 2544 4750 2975 4387 
Q 3406 4025 3406 3419 
Q 3406 3131 3298 2873 
Q 3191 2616 2906 2266 
Q 2828 2175 2409 1742 
Q 1991 1309 1228 531 
z
" id="DejaVuSans-32" transform="scale(0.015625)"/>
      </defs>
      <use xlink:href="#DejaVuSans-32"/>
     </g>
    </g>
   </g>
   <g id="text_4">
    <g clip-path="url(#pb4a259e70f)">
     <!-- 3 -->
     <g transform="translate(120.897749 140.267783)scale(0.12 -0.12)">
      <defs>
       <path d="M 2597 2516 
Q 3050 2419 3304 2112 
Q 3559 1806 3559 1356 
Q 3559 666 3084 287 
Q 2609 -91 1734 -91 
Q 1441 -91 1130 -33 
Q 819 25 488 141 
L 488 750 
Q 750 597 1062 519 
Q 1375 441 1716 441 
Q 2309 441 2620 675 
Q 2931 909 2931 1356 
Q 2931 1769 2642 2001 
Q 2353 2234 1838 2234 
L 1294 2234 
L 1294 2753 
L 1863 2753 
Q 2328 2753 2575 2939 
Q 2822 3125 2822 3475 
Q 2822 3834 2567 4026 
Q 2313 4219 1838 4219 
Q 1578 4219 1281 4162 
Q 984 4106 628 3988 
L 628 4550 
Q 988 4650 1302 4700 
Q 1616 4750 1894 4750 
Q 2613 4750 3031 4423 
Q 3450 4097 3450 3541 
Q 3450 3153 3228 2886 
Q 3006 2619 2597 2516 
z
" id="DejaVuSans-33" transform="scale(0.015625)"/>
      </defs>
      <use xlink:href="#DejaVuSans-33"/>
     </g>
    </g>
   </g>
   <g id="text_5">
    <g clip-path="url(#pb4a259e70f)">
     <!-- 4 -->
     <g transform="translate(232.619751 103.120561)scale(0.12 -0.12)">
      <defs>
       <path d="M 2419 4116 
L 825 1625 
L 2419 1625 
L 2419 4116 
z
M 2253 4666 
L 3047 4666 
L 3047 1625 
L 3713 1625 
L 3713 1100 
L 3047 1100 
L 3047 0 
L 2419 0 
L 2419 1100 
L 313 1100 
L 313 1709 
L 2253 4666 
z
" id="DejaVuSans-34" transform="scale(0.015625)"/>
      </defs>
      <use xlink:href="#DejaVuSans-34"/>
     </g>
    </g>
   </g>
   <g id="text_6">
    <g clip-path="url(#pb4a259e70f)">
     <!-- 5 -->
     <g transform="translate(312.351716 153.284708)scale(0.12 -0.12)">
      <defs>
       <path d="M 691 4666 
L 3169 4666 
L 3169 4134 
L 1269 4134 
L 1269 2991 
Q 1406 3038 1543 3061 
Q 1681 3084 1819 3084 
Q 2600 3084 3056 2656 
Q 3513 2228 3513 1497 
Q 3513 744 3044 326 
Q 2575 -91 1722 -91 
Q 1428 -91 1123 -41 
Q 819 9 494 109 
L 494 744 
Q 775 591 1075 516 
Q 1375 441 1709 441 
Q 2250 441 2565 725 
Q 2881 1009 2881 1497 
Q 2881 1984 2565 2268 
Q 2250 2553 1709 2553 
Q 1456 2553 1204 2497 
Q 953 2441 691 2322 
L 691 4666 
z
" id="DejaVuSans-35" transform="scale(0.015625)"/>
      </defs>
      <use xlink:href="#DejaVuSans-35"/>
     </g>
    </g>
   </g>
   <g id="text_7">
    <g clip-path="url(#pb4a259e70f)">
     <!-- 6 -->
     <g transform="translate(172.55642 118.264882)scale(0.12 -0.12)">
      <defs>
       <path d="M 2113 2584 
Q 1688 2584 1439 2293 
Q 1191 2003 1191 1497 
Q 1191 994 1439 701 
Q 1688 409 2113 409 
Q 2538 409 2786 701 
Q 3034 994 3034 1497 
Q 3034 2003 2786 2293 
Q 2538 2584 2113 2584 
z
M 3366 4563 
L 3366 3988 
Q 3128 4100 2886 4159 
Q 2644 4219 2406 4219 
Q 1781 4219 1451 3797 
Q 1122 3375 1075 2522 
Q 1259 2794 1537 2939 
Q 1816 3084 2150 3084 
Q 2853 3084 3261 2657 
Q 3669 2231 3669 1497 
Q 3669 778 3244 343 
Q 2819 -91 2113 -91 
Q 1303 -91 875 529 
Q 447 1150 447 2328 
Q 447 3434 972 4092 
Q 1497 4750 2381 4750 
Q 2619 4750 2861 4703 
Q 3103 4656 3366 4563 
z
" id="DejaVuSans-36" transform="scale(0.015625)"/>
      </defs>
      <use xlink:href="#DejaVuSans-36"/>
     </g>
    </g>
   </g>
   <g id="text_8">
    <g clip-path="url(#pb4a259e70f)">
     <!-- 7 -->
     <g transform="translate(283.553581 175.860958)scale(0.12 -0.12)">
      <defs>
       <path d="M 525 4666 
L 3525 4666 
L 3525 4397 
L 1831 0 
L 1172 0 
L 2766 4134 
L 525 4134 
L 525 4666 
z
" id="DejaVuSans-37" transform="scale(0.015625)"/>
      </defs>
      <use xlink:href="#DejaVuSans-37"/>
     </g>
    </g>
   </g>
   <g id="text_9">
    <g clip-path="url(#pb4a259e70f)">
     <!-- 8 -->
     <g transform="translate(266.910243 88.22274)scale(0.12 -0.12)">
      <defs>
       <path d="M 2034 2216 
Q 1584 2216 1326 1975 
Q 1069 1734 1069 1313 
Q 1069 891 1326 650 
Q 1584 409 2034 409 
Q 2484 409 2743 651 
Q 3003 894 3003 1313 
Q 3003 1734 2745 1975 
Q 2488 2216 2034 2216 
z
M 1403 2484 
Q 997 2584 770 2862 
Q 544 3141 544 3541 
Q 544 4100 942 4425 
Q 1341 4750 2034 4750 
Q 2731 4750 3128 4425 
Q 3525 4100 3525 3541 
Q 3525 3141 3298 2862 
Q 3072 2584 2669 2484 
Q 3125 2378 3379 2068 
Q 3634 1759 3634 1313 
Q 3634 634 3220 271 
Q 2806 -91 2034 -91 
Q 1263 -91 848 271 
Q 434 634 434 1313 
Q 434 1759 690 2068 
Q 947 2378 1403 2484 
z
M 1172 3481 
Q 1172 3119 1398 2916 
Q 1625 2713 2034 2713 
Q 2441 2713 2670 2916 
Q 2900 3119 2900 3481 
Q 2900 3844 2670 4047 
Q 2441 4250 2034 4250 
Q 1625 4250 1398 4047 
Q 1172 3844 1172 3481 
z
" id="DejaVuSans-38" transform="scale(0.015625)"/>
      </defs>
      <use xlink:href="#DejaVuSans-38"/>
     </g>
    </g>
   </g>
   <g id="text_10">
    <g clip-path="url(#pb4a259e70f)">
     <!-- 9 -->
     <g transform="translate(247.191894 179.516348)scale(0.12 -0.12)">
      <defs>
       <path d="M 703 97 
L 703 672 
Q 941 559 1184 500 
Q 1428 441 1663 441 
Q 2288 441 2617 861 
Q 2947 1281 2994 2138 
Q 2813 1869 2534 1725 
Q 2256 1581 1919 1581 
Q 1219 1581 811 2004 
Q 403 2428 403 3163 
Q 403 3881 828 4315 
Q 1253 4750 1959 4750 
Q 2769 4750 3195 4129 
Q 3622 3509 3622 2328 
Q 3622 1225 3098 567 
Q 2575 -91 1691 -91 
Q 1453 -91 1209 -44 
Q 966 3 703 97 
z
M 1959 2075 
Q 2384 2075 2632 2365 
Q 2881 2656 2881 3163 
Q 2881 3666 2632 3958 
Q 2384 4250 1959 4250 
Q 1534 4250 1286 3958 
Q 1038 3666 1038 3163 
Q 1038 2656 1286 2365 
Q 1534 2075 1959 2075 
z
" id="DejaVuSans-39" transform="scale(0.015625)"/>
      </defs>
      <use xlink:href="#DejaVuSans-39"/>
     </g>
    </g>
   </g>
   <g id="text_11">
    <g clip-path="url(#pb4a259e70f)">
     <!-- 10 -->
     <g transform="translate(255.129597 143.3674)scale(0.12 -0.12)">
      <use xlink:href="#DejaVuSans-31"/>
      <use x="63.623047" xlink:href="#DejaVuSans-30"/>
     </g>
    </g>
   </g>
   <g id="text_12">
    <g clip-path="url(#pb4a259e70f)">
     <!-- 11 -->
     <g transform="translate(343.83057 107.934746)scale(0.12 -0.12)">
      <use xlink:href="#DejaVuSans-31"/>
      <use x="63.623047" xlink:href="#DejaVuSans-31"/>
     </g>
    </g>
   </g>
   <g id="text_13">
    <g clip-path="url(#pb4a259e70f)">
     <!-- 12 -->
     <g transform="translate(147.041994 206.610098)scale(0.12 -0.12)">
      <use xlink:href="#DejaVuSans-31"/>
      <use x="63.623047" xlink:href="#DejaVuSans-32"/>
     </g>
    </g>
   </g>
   <g id="text_14">
    <g clip-path="url(#pb4a259e70f)">
     <!-- 13 -->
     <g transform="translate(152.299232 161.601051)scale(0.12 -0.12)">
      <use xlink:href="#DejaVuSans-31"/>
      <use x="63.623047" xlink:href="#DejaVuSans-33"/>
     </g>
    </g>
   </g>
   <g id="text_15">
    <g clip-path="url(#pb4a259e70f)">
     <!-- 14 -->
     <g transform="translate(125.094357 83.781751)scale(0.12 -0.12)">
      <use xlink:href="#DejaVuSans-31"/>
      <use x="63.623047" xlink:href="#DejaVuSans-34"/>
     </g>
    </g>
   </g>
   <g id="text_16">
    <g clip-path="url(#pb4a259e70f)">
     <!-- 15 -->
     <g transform="translate(209.793922 67.875614)scale(0.12 -0.12)">
      <use xlink:href="#DejaVuSans-31"/>
      <use x="63.623047" xlink:href="#DejaVuSans-35"/>
     </g>
    </g>
   </g>
   <g id="text_17">
    <g clip-path="url(#pb4a259e70f)">
     <!-- 16 -->
     <g transform="translate(376.095248 178.16918)scale(0.12 -0.12)">
      <use xlink:href="#DejaVuSans-31"/>
      <use x="63.623047" xlink:href="#DejaVuSans-36"/>
     </g>
    </g>
   </g>
   <g id="text_18">
    <g clip-path="url(#pb4a259e70f)">
     <!-- 17 -->
     <g transform="translate(252.058539 238.672378)scale(0.12 -0.12)">
      <use xlink:href="#DejaVuSans-31"/>
      <use x="63.623047" xlink:href="#DejaVuSans-37"/>
     </g>
    </g>
   </g>
   <g id="text_19">
    <g clip-path="url(#pb4a259e70f)">
     <!-- 18 -->
     <g transform="translate(362.740411 132.164819)scale(0.12 -0.12)">
      <use xlink:href="#DejaVuSans-31"/>
      <use x="63.623047" xlink:href="#DejaVuSans-38"/>
     </g>
    </g>
   </g>
   <g id="text_20">
    <g clip-path="url(#pb4a259e70f)">
     <!-- 19 -->
     <g transform="translate(327.008921 223.274493)scale(0.12 -0.12)">
      <use xlink:href="#DejaVuSans-31"/>
      <use x="63.623047" xlink:href="#DejaVuSans-39"/>
     </g>
    </g>
   </g>
   <g id="text_21">
    <!-- Barabasi Albert Graph -->
    <g transform="translate(169.635938 35.472)scale(0.12 -0.12)">
     <defs>
      <path d="M 1259 2228 
L 1259 519 
L 2272 519 
Q 2781 519 3026 730 
Q 3272 941 3272 1375 
Q 3272 1813 3026 2020 
Q 2781 2228 2272 2228 
L 1259 2228 
z
M 1259 4147 
L 1259 2741 
L 2194 2741 
Q 2656 2741 2882 2914 
Q 3109 3088 3109 3444 
Q 3109 3797 2882 3972 
Q 2656 4147 2194 4147 
L 1259 4147 
z
M 628 4666 
L 2241 4666 
Q 2963 4666 3353 4366 
Q 3744 4066 3744 3513 
Q 3744 3084 3544 2831 
Q 3344 2578 2956 2516 
Q 3422 2416 3680 2098 
Q 3938 1781 3938 1306 
Q 3938 681 3513 340 
Q 3088 0 2303 0 
L 628 0 
L 628 4666 
z
" id="DejaVuSans-42" transform="scale(0.015625)"/>
      <path d="M 2194 1759 
Q 1497 1759 1228 1600 
Q 959 1441 959 1056 
Q 959 750 1161 570 
Q 1363 391 1709 391 
Q 2188 391 2477 730 
Q 2766 1069 2766 1631 
L 2766 1759 
L 2194 1759 
z
M 3341 1997 
L 3341 0 
L 2766 0 
L 2766 531 
Q 2569 213 2275 61 
Q 1981 -91 1556 -91 
Q 1019 -91 701 211 
Q 384 513 384 1019 
Q 384 1609 779 1909 
Q 1175 2209 1959 2209 
L 2766 2209 
L 2766 2266 
Q 2766 2663 2505 2880 
Q 2244 3097 1772 3097 
Q 1472 3097 1187 3025 
Q 903 2953 641 2809 
L 641 3341 
Q 956 3463 1253 3523 
Q 1550 3584 1831 3584 
Q 2591 3584 2966 3190 
Q 3341 2797 3341 1997 
z
" id="DejaVuSans-61" transform="scale(0.015625)"/>
      <path d="M 2631 2963 
Q 2534 3019 2420 3045 
Q 2306 3072 2169 3072 
Q 1681 3072 1420 2755 
Q 1159 2438 1159 1844 
L 1159 0 
L 581 0 
L 581 3500 
L 1159 3500 
L 1159 2956 
Q 1341 3275 1631 3429 
Q 1922 3584 2338 3584 
Q 2397 3584 2469 3576 
Q 2541 3569 2628 3553 
L 2631 2963 
z
" id="DejaVuSans-72" transform="scale(0.015625)"/>
      <path d="M 3116 1747 
Q 3116 2381 2855 2742 
Q 2594 3103 2138 3103 
Q 1681 3103 1420 2742 
Q 1159 2381 1159 1747 
Q 1159 1113 1420 752 
Q 1681 391 2138 391 
Q 2594 391 2855 752 
Q 3116 1113 3116 1747 
z
M 1159 2969 
Q 1341 3281 1617 3432 
Q 1894 3584 2278 3584 
Q 2916 3584 3314 3078 
Q 3713 2572 3713 1747 
Q 3713 922 3314 415 
Q 2916 -91 2278 -91 
Q 1894 -91 1617 61 
Q 1341 213 1159 525 
L 1159 0 
L 581 0 
L 581 4863 
L 1159 4863 
L 1159 2969 
z
" id="DejaVuSans-62" transform="scale(0.015625)"/>
      <path d="M 2834 3397 
L 2834 2853 
Q 2591 2978 2328 3040 
Q 2066 3103 1784 3103 
Q 1356 3103 1142 2972 
Q 928 2841 928 2578 
Q 928 2378 1081 2264 
Q 1234 2150 1697 2047 
L 1894 2003 
Q 2506 1872 2764 1633 
Q 3022 1394 3022 966 
Q 3022 478 2636 193 
Q 2250 -91 1575 -91 
Q 1294 -91 989 -36 
Q 684 19 347 128 
L 347 722 
Q 666 556 975 473 
Q 1284 391 1588 391 
Q 1994 391 2212 530 
Q 2431 669 2431 922 
Q 2431 1156 2273 1281 
Q 2116 1406 1581 1522 
L 1381 1569 
Q 847 1681 609 1914 
Q 372 2147 372 2553 
Q 372 3047 722 3315 
Q 1072 3584 1716 3584 
Q 2034 3584 2315 3537 
Q 2597 3491 2834 3397 
z
" id="DejaVuSans-73" transform="scale(0.015625)"/>
      <path d="M 603 3500 
L 1178 3500 
L 1178 0 
L 603 0 
L 603 3500 
z
M 603 4863 
L 1178 4863 
L 1178 4134 
L 603 4134 
L 603 4863 
z
" id="DejaVuSans-69" transform="scale(0.015625)"/>
      <path id="DejaVuSans-20" transform="scale(0.015625)"/>
      <path d="M 2188 4044 
L 1331 1722 
L 3047 1722 
L 2188 4044 
z
M 1831 4666 
L 2547 4666 
L 4325 0 
L 3669 0 
L 3244 1197 
L 1141 1197 
L 716 0 
L 50 0 
L 1831 4666 
z
" id="DejaVuSans-41" transform="scale(0.015625)"/>
      <path d="M 603 4863 
L 1178 4863 
L 1178 0 
L 603 0 
L 603 4863 
z
" id="DejaVuSans-6c" transform="scale(0.015625)"/>
      <path d="M 3597 1894 
L 3597 1613 
L 953 1613 
Q 991 1019 1311 708 
Q 1631 397 2203 397 
Q 2534 397 2845 478 
Q 3156 559 3463 722 
L 3463 178 
Q 3153 47 2828 -22 
Q 2503 -91 2169 -91 
Q 1331 -91 842 396 
Q 353 884 353 1716 
Q 353 2575 817 3079 
Q 1281 3584 2069 3584 
Q 2775 3584 3186 3129 
Q 3597 2675 3597 1894 
z
M 3022 2063 
Q 3016 2534 2758 2815 
Q 2500 3097 2075 3097 
Q 1594 3097 1305 2825 
Q 1016 2553 972 2059 
L 3022 2063 
z
" id="DejaVuSans-65" transform="scale(0.015625)"/>
      <path d="M 1172 4494 
L 1172 3500 
L 2356 3500 
L 2356 3053 
L 1172 3053 
L 1172 1153 
Q 1172 725 1289 603 
Q 1406 481 1766 481 
L 2356 481 
L 2356 0 
L 1766 0 
Q 1100 0 847 248 
Q 594 497 594 1153 
L 594 3053 
L 172 3053 
L 172 3500 
L 594 3500 
L 594 4494 
L 1172 4494 
z
" id="DejaVuSans-74" transform="scale(0.015625)"/>
      <path d="M 3809 666 
L 3809 1919 
L 2778 1919 
L 2778 2438 
L 4434 2438 
L 4434 434 
Q 4069 175 3628 42 
Q 3188 -91 2688 -91 
Q 1594 -91 976 548 
Q 359 1188 359 2328 
Q 359 3472 976 4111 
Q 1594 4750 2688 4750 
Q 3144 4750 3555 4637 
Q 3966 4525 4313 4306 
L 4313 3634 
Q 3963 3931 3569 4081 
Q 3175 4231 2741 4231 
Q 1884 4231 1454 3753 
Q 1025 3275 1025 2328 
Q 1025 1384 1454 906 
Q 1884 428 2741 428 
Q 3075 428 3337 486 
Q 3600 544 3809 666 
z
" id="DejaVuSans-47" transform="scale(0.015625)"/>
      <path d="M 1159 525 
L 1159 -1331 
L 581 -1331 
L 581 3500 
L 1159 3500 
L 1159 2969 
Q 1341 3281 1617 3432 
Q 1894 3584 2278 3584 
Q 2916 3584 3314 3078 
Q 3713 2572 3713 1747 
Q 3713 922 3314 415 
Q 2916 -91 2278 -91 
Q 1894 -91 1617 61 
Q 1341 213 1159 525 
z
M 3116 1747 
Q 3116 2381 2855 2742 
Q 2594 3103 2138 3103 
Q 1681 3103 1420 2742 
Q 1159 2381 1159 1747 
Q 1159 1113 1420 752 
Q 1681 391 2138 391 
Q 2594 391 2855 752 
Q 3116 1113 3116 1747 
z
" id="DejaVuSans-70" transform="scale(0.015625)"/>
      <path d="M 3513 2113 
L 3513 0 
L 2938 0 
L 2938 2094 
Q 2938 2591 2744 2837 
Q 2550 3084 2163 3084 
Q 1697 3084 1428 2787 
Q 1159 2491 1159 1978 
L 1159 0 
L 581 0 
L 581 4863 
L 1159 4863 
L 1159 2956 
Q 1366 3272 1645 3428 
Q 1925 3584 2291 3584 
Q 2894 3584 3203 3211 
Q 3513 2838 3513 2113 
z
" id="DejaVuSans-68" transform="scale(0.015625)"/>
     </defs>
     <use xlink:href="#DejaVuSans-42"/>
     <use x="68.603516" xlink:href="#DejaVuSans-61"/>
     <use x="129.882812" xlink:href="#DejaVuSans-72"/>
     <use x="170.996094" xlink:href="#DejaVuSans-61"/>
     <use x="232.275391" xlink:href="#DejaVuSans-62"/>
     <use x="295.751953" xlink:href="#DejaVuSans-61"/>
     <use x="357.03125" xlink:href="#DejaVuSans-73"/>
     <use x="409.130859" xlink:href="#DejaVuSans-69"/>
     <use x="436.914062" xlink:href="#DejaVuSans-20"/>
     <use x="468.701172" xlink:href="#DejaVuSans-41"/>
     <use x="537.109375" xlink:href="#DejaVuSans-6c"/>
     <use x="564.892578" xlink:href="#DejaVuSans-62"/>
     <use x="628.369141" xlink:href="#DejaVuSans-65"/>
     <use x="689.892578" xlink:href="#DejaVuSans-72"/>
     <use x="731.005859" xlink:href="#DejaVuSans-74"/>
     <use x="770.214844" xlink:href="#DejaVuSans-20"/>
     <use x="802.001953" xlink:href="#DejaVuSans-47"/>
     <use x="879.492188" xlink:href="#DejaVuSans-72"/>
     <use x="920.605469" xlink:href="#DejaVuSans-61"/>
     <use x="981.884766" xlink:href="#DejaVuSans-70"/>
     <use x="1045.361328" xlink:href="#DejaVuSans-68"/>
    </g>
   </g>
  </g>
 </g>
 <defs>
  <clipPath id="pb4a259e70f">
   <rect height="266.112" width="357.12" x="57.6" y="41.472"/>
  </clipPath>
 </defs>
</svg>
