<?xml version="1.0" encoding="utf-8" standalone="no"?>
<!DOCTYPE svg PUBLIC "-//W3C//DTD SVG 1.1//EN"
  "http://www.w3.org/Graphics/SVG/1.1/DTD/svg11.dtd">
<svg height="345.6pt" version="1.1" viewBox="0 0 460.8 345.6" width="460.8pt" xmlns="http://www.w3.org/2000/svg" xmlns:xlink="http://www.w3.org/1999/xlink">
 <metadata>
  <rdf:RDF xmlns:cc="http://creativecommons.org/ns#" xmlns:dc="http://purl.org/dc/elements/1.1/" xmlns:rdf="http://www.w3.org/1999/02/22-rdf-syntax-ns#">
   <cc:Work>
    <dc:type rdf:resource="http://purl.org/dc/dcmitype/StillImage"/>
    <dc:date>2022-10-02T21:44:07.649776</dc:date>
    <dc:format>image/svg+xml</dc:format>
    <dc:creator>
     <cc:Agent>
      <dc:title>Matplotlib v3.4.3, https://matplotlib.org/</dc:title>
     </cc:Agent>
    </dc:creator>
   </cc:Work>
  </rdf:RDF>
 </metadata>
 <defs>
  <style type="text/css">*{stroke-linecap:butt;stroke-linejoin:round;}</style>
 </defs>
 <g id="figure_1">
  <g id="patch_1">
   <path d="M 0 345.6 
L 460.8 345.6 
L 460.8 0 
L 0 0 
z
" style="fill:#ffffff;"/>
  </g>
  <g id="axes_1">
   <g id="patch_2">
    <path d="M 57.6 307.584 
L 414.72 307.584 
L 414.72 41.472 
L 57.6 41.472 
z
" style="fill:#ffffff;"/>
   </g>
   <g id="LineCollection_1">
    <path clip-path="url(#pe2396b9f20)" d="M 263.503238 79.261069 
L 248.640207 97.918832 
" style="fill:none;stroke:#000000;"/>
    <path clip-path="url(#pe2396b9f20)" d="M 263.503238 79.261069 
L 274.546598 64.564364 
" style="fill:none;stroke:#000000;"/>
    <path clip-path="url(#pe2396b9f20)" d="M 248.640207 97.918832 
L 231.663612 119.845742 
" style="fill:none;stroke:#000000;"/>
    <path clip-path="url(#pe2396b9f20)" d="M 231.663612 119.845742 
L 212.658026 144.166335 
" style="fill:none;stroke:#000000;"/>
    <path clip-path="url(#pe2396b9f20)" d="M 88.589752 76.360732 
L 107.066381 73.902241 
" style="fill:none;stroke:#000000;"/>
    <path clip-path="url(#pe2396b9f20)" d="M 107.066381 73.902241 
L 131.19784 77.017519 
" style="fill:none;stroke:#000000;"/>
    <path clip-path="url(#pe2396b9f20)" d="M 131.19784 77.017519 
L 158.966779 83.948797 
" style="fill:none;stroke:#000000;"/>
    <path clip-path="url(#pe2396b9f20)" d="M 158.966779 83.948797 
L 186.769388 102.254773 
" style="fill:none;stroke:#000000;"/>
    <path clip-path="url(#pe2396b9f20)" d="M 158.966779 83.948797 
L 154.338953 67.81418 
" style="fill:none;stroke:#000000;"/>
    <path clip-path="url(#pe2396b9f20)" d="M 186.769388 102.254773 
L 215.402948 124.130227 
" style="fill:none;stroke:#000000;"/>
    <path clip-path="url(#pe2396b9f20)" d="M 215.402948 124.130227 
L 245.147144 149.477766 
" style="fill:none;stroke:#000000;"/>
    <path clip-path="url(#pe2396b9f20)" d="M 245.147144 149.477766 
L 272.085202 155.945616 
" style="fill:none;stroke:#000000;"/>
    <path clip-path="url(#pe2396b9f20)" d="M 245.147144 149.477766 
L 255.206743 178.854794 
" style="fill:none;stroke:#000000;"/>
    <path clip-path="url(#pe2396b9f20)" d="M 383.730248 159.956754 
L 363.396848 158.802387 
" style="fill:none;stroke:#000000;"/>
    <path clip-path="url(#pe2396b9f20)" d="M 363.396848 158.802387 
L 337.309627 157.462565 
" style="fill:none;stroke:#000000;"/>
    <path clip-path="url(#pe2396b9f20)" d="M 337.309627 157.462565 
L 306.824742 156.398493 
" style="fill:none;stroke:#000000;"/>
    <path clip-path="url(#pe2396b9f20)" d="M 306.824742 156.398493 
L 272.085202 155.945616 
" style="fill:none;stroke:#000000;"/>
    <path clip-path="url(#pe2396b9f20)" d="M 243.122348 284.491636 
L 250.087713 270.627083 
" style="fill:none;stroke:#000000;"/>
    <path clip-path="url(#pe2396b9f20)" d="M 250.087713 270.627083 
L 256.826587 252.881805 
" style="fill:none;stroke:#000000;"/>
    <path clip-path="url(#pe2396b9f20)" d="M 256.826587 252.881805 
L 260.315521 231.443354 
" style="fill:none;stroke:#000000;"/>
    <path clip-path="url(#pe2396b9f20)" d="M 260.315521 231.443354 
L 259.928936 206.413602 
" style="fill:none;stroke:#000000;"/>
    <path clip-path="url(#pe2396b9f20)" d="M 259.928936 206.413602 
L 255.206743 178.854794 
" style="fill:none;stroke:#000000;"/>
    <path clip-path="url(#pe2396b9f20)" d="M 272.085202 155.945616 
L 245.387199 163.195286 
" style="fill:none;stroke:#000000;"/>
    <path clip-path="url(#pe2396b9f20)" d="M 245.387199 163.195286 
L 216.054131 166.423019 
" style="fill:none;stroke:#000000;"/>
    <path clip-path="url(#pe2396b9f20)" d="M 216.054131 166.423019 
L 212.658026 144.166335 
" style="fill:none;stroke:#000000;"/>
    <path clip-path="url(#pe2396b9f20)" d="M 216.054131 166.423019 
L 192.655673 173.49205 
" style="fill:none;stroke:#000000;"/>
    <path clip-path="url(#pe2396b9f20)" d="M 216.054131 166.423019 
L 210.264783 183.311842 
" style="fill:none;stroke:#000000;"/>
    <path clip-path="url(#pe2396b9f20)" d="M 212.658026 144.166335 
L 189.215411 154.405194 
" style="fill:none;stroke:#000000;"/>
    <path clip-path="url(#pe2396b9f20)" d="M 189.215411 154.405194 
L 176.654792 167.722056 
" style="fill:none;stroke:#000000;"/>
    <path clip-path="url(#pe2396b9f20)" d="M 176.654792 167.722056 
L 192.655673 173.49205 
" style="fill:none;stroke:#000000;"/>
   </g>
   <g id="matplotlib.axis_1">
    <g id="xtick_1"/>
    <g id="xtick_2"/>
    <g id="xtick_3"/>
    <g id="xtick_4"/>
    <g id="xtick_5"/>
    <g id="xtick_6"/>
    <g id="xtick_7"/>
    <g id="xtick_8"/>
    <g id="xtick_9"/>
   </g>
   <g id="matplotlib.axis_2">
    <g id="ytick_1"/>
    <g id="ytick_2"/>
    <g id="ytick_3"/>
    <g id="ytick_4"/>
    <g id="ytick_5"/>
    <g id="ytick_6"/>
    <g id="ytick_7"/>
    <g id="ytick_8"/>
   </g>
   <g id="PathCollection_1">
    <defs>
     <path d="M 0 8.660254 
C 2.296726 8.660254 4.499694 7.747755 6.123724 6.123724 
C 7.747755 4.499694 8.660254 2.296726 8.660254 0 
C 8.660254 -2.296726 7.747755 -4.499694 6.123724 -6.123724 
C 4.499694 -7.747755 2.296726 -8.660254 0 -8.660254 
C -2.296726 -8.660254 -4.499694 -7.747755 -6.123724 -6.123724 
C -7.747755 -4.499694 -8.660254 -2.296726 -8.660254 0 
C -8.660254 2.296726 -7.747755 4.499694 -6.123724 6.123724 
C -4.499694 7.747755 -2.296726 8.660254 0 8.660254 
z
" id="m0d1cf987c7" style="stroke:#1f78b4;"/>
    </defs>
    <g clip-path="url(#pe2396b9f20)">
     <use style="fill:#1f78b4;stroke:#1f78b4;" x="263.503238" xlink:href="#m0d1cf987c7" y="79.261069"/>
     <use style="fill:#1f78b4;stroke:#1f78b4;" x="248.640207" xlink:href="#m0d1cf987c7" y="97.918832"/>
     <use style="fill:#1f78b4;stroke:#1f78b4;" x="231.663612" xlink:href="#m0d1cf987c7" y="119.845742"/>
     <use style="fill:#1f78b4;stroke:#1f78b4;" x="88.589752" xlink:href="#m0d1cf987c7" y="76.360732"/>
     <use style="fill:#1f78b4;stroke:#1f78b4;" x="107.066381" xlink:href="#m0d1cf987c7" y="73.902241"/>
     <use style="fill:#1f78b4;stroke:#1f78b4;" x="131.19784" xlink:href="#m0d1cf987c7" y="77.017519"/>
     <use style="fill:#1f78b4;stroke:#1f78b4;" x="158.966779" xlink:href="#m0d1cf987c7" y="83.948797"/>
     <use style="fill:#1f78b4;stroke:#1f78b4;" x="186.769388" xlink:href="#m0d1cf987c7" y="102.254773"/>
     <use style="fill:#1f78b4;stroke:#1f78b4;" x="215.402948" xlink:href="#m0d1cf987c7" y="124.130227"/>
     <use style="fill:#1f78b4;stroke:#1f78b4;" x="245.147144" xlink:href="#m0d1cf987c7" y="149.477766"/>
     <use style="fill:#1f78b4;stroke:#1f78b4;" x="383.730248" xlink:href="#m0d1cf987c7" y="159.956754"/>
     <use style="fill:#1f78b4;stroke:#1f78b4;" x="363.396848" xlink:href="#m0d1cf987c7" y="158.802387"/>
     <use style="fill:#1f78b4;stroke:#1f78b4;" x="337.309627" xlink:href="#m0d1cf987c7" y="157.462565"/>
     <use style="fill:#1f78b4;stroke:#1f78b4;" x="306.824742" xlink:href="#m0d1cf987c7" y="156.398493"/>
     <use style="fill:#1f78b4;stroke:#1f78b4;" x="154.338953" xlink:href="#m0d1cf987c7" y="67.81418"/>
     <use style="fill:#1f78b4;stroke:#1f78b4;" x="243.122348" xlink:href="#m0d1cf987c7" y="284.491636"/>
     <use style="fill:#1f78b4;stroke:#1f78b4;" x="250.087713" xlink:href="#m0d1cf987c7" y="270.627083"/>
     <use style="fill:#1f78b4;stroke:#1f78b4;" x="256.826587" xlink:href="#m0d1cf987c7" y="252.881805"/>
     <use style="fill:#1f78b4;stroke:#1f78b4;" x="260.315521" xlink:href="#m0d1cf987c7" y="231.443354"/>
     <use style="fill:#1f78b4;stroke:#1f78b4;" x="259.928936" xlink:href="#m0d1cf987c7" y="206.413602"/>
     <use style="fill:#1f78b4;stroke:#1f78b4;" x="255.206743" xlink:href="#m0d1cf987c7" y="178.854794"/>
     <use style="fill:#1f78b4;stroke:#1f78b4;" x="272.085202" xlink:href="#m0d1cf987c7" y="155.945616"/>
     <use style="fill:#1f78b4;stroke:#1f78b4;" x="245.387199" xlink:href="#m0d1cf987c7" y="163.195286"/>
     <use style="fill:#1f78b4;stroke:#1f78b4;" x="216.054131" xlink:href="#m0d1cf987c7" y="166.423019"/>
     <use style="fill:#1f78b4;stroke:#1f78b4;" x="212.658026" xlink:href="#m0d1cf987c7" y="144.166335"/>
     <use style="fill:#1f78b4;stroke:#1f78b4;" x="189.215411" xlink:href="#m0d1cf987c7" y="154.405194"/>
     <use style="fill:#1f78b4;stroke:#1f78b4;" x="176.654792" xlink:href="#m0d1cf987c7" y="167.722056"/>
     <use style="fill:#1f78b4;stroke:#1f78b4;" x="192.655673" xlink:href="#m0d1cf987c7" y="173.49205"/>
     <use style="fill:#1f78b4;stroke:#1f78b4;" x="210.264783" xlink:href="#m0d1cf987c7" y="183.311842"/>
     <use style="fill:#1f78b4;stroke:#1f78b4;" x="274.546598" xlink:href="#m0d1cf987c7" y="64.564364"/>
    </g>
   </g>
   <g id="patch_3">
    <path d="M 57.6 307.584 
L 57.6 41.472 
" style="fill:none;stroke:#000000;stroke-linecap:square;stroke-linejoin:miter;stroke-width:0.8;"/>
   </g>
   <g id="patch_4">
    <path d="M 414.72 307.584 
L 414.72 41.472 
" style="fill:none;stroke:#000000;stroke-linecap:square;stroke-linejoin:miter;stroke-width:0.8;"/>
   </g>
   <g id="patch_5">
    <path d="M 57.6 307.584 
L 414.72 307.584 
" style="fill:none;stroke:#000000;stroke-linecap:square;stroke-linejoin:miter;stroke-width:0.8;"/>
   </g>
   <g id="patch_6">
    <path d="M 57.6 41.472 
L 414.72 41.472 
" style="fill:none;stroke:#000000;stroke-linecap:square;stroke-linejoin:miter;stroke-width:0.8;"/>
   </g>
   <g id="text_1">
    <g clip-path="url(#pe2396b9f20)">
     <!-- 0 -->
     <g transform="translate(259.685738 82.572319)scale(0.12 -0.12)">
      <defs>
       <path d="M 2034 4250 
Q 1547 4250 1301 3770 
Q 1056 3291 1056 2328 
Q 1056 1369 1301 889 
Q 1547 409 2034 409 
Q 2525 409 2770 889 
Q 3016 1369 3016 2328 
Q 3016 3291 2770 3770 
Q 2525 4250 2034 4250 
z
M 2034 4750 
Q 2819 4750 3233 4129 
Q 3647 3509 3647 2328 
Q 3647 1150 3233 529 
Q 2819 -91 2034 -91 
Q 1250 -91 836 529 
Q 422 1150 422 2328 
Q 422 3509 836 4129 
Q 1250 4750 2034 4750 
z
" id="DejaVuSans-30" transform="scale(0.015625)"/>
      </defs>
      <use xlink:href="#DejaVuSans-30"/>
     </g>
    </g>
   </g>
   <g id="text_2">
    <g clip-path="url(#pe2396b9f20)">
     <!-- 1 -->
     <g transform="translate(244.822707 101.230082)scale(0.12 -0.12)">
      <defs>
       <path d="M 794 531 
L 1825 531 
L 1825 4091 
L 703 3866 
L 703 4441 
L 1819 4666 
L 2450 4666 
L 2450 531 
L 3481 531 
L 3481 0 
L 794 0 
L 794 531 
z
" id="DejaVuSans-31" transform="scale(0.015625)"/>
      </defs>
      <use xlink:href="#DejaVuSans-31"/>
     </g>
    </g>
   </g>
   <g id="text_3">
    <g clip-path="url(#pe2396b9f20)">
     <!-- 2 -->
     <g transform="translate(227.846112 123.156992)scale(0.12 -0.12)">
      <defs>
       <path d="M 1228 531 
L 3431 531 
L 3431 0 
L 469 0 
L 469 531 
Q 828 903 1448 1529 
Q 2069 2156 2228 2338 
Q 2531 2678 2651 2914 
Q 2772 3150 2772 3378 
Q 2772 3750 2511 3984 
Q 2250 4219 1831 4219 
Q 1534 4219 1204 4116 
Q 875 4013 500 3803 
L 500 4441 
Q 881 4594 1212 4672 
Q 1544 4750 1819 4750 
Q 2544 4750 2975 4387 
Q 3406 4025 3406 3419 
Q 3406 3131 3298 2873 
Q 3191 2616 2906 2266 
Q 2828 2175 2409 1742 
Q 1991 1309 1228 531 
z
" id="DejaVuSans-32" transform="scale(0.015625)"/>
      </defs>
      <use xlink:href="#DejaVuSans-32"/>
     </g>
    </g>
   </g>
   <g id="text_4">
    <g clip-path="url(#pe2396b9f20)">
     <!-- 3 -->
     <g transform="translate(84.772252 79.671982)scale(0.12 -0.12)">
      <defs>
       <path d="M 2597 2516 
Q 3050 2419 3304 2112 
Q 3559 1806 3559 1356 
Q 3559 666 3084 287 
Q 2609 -91 1734 -91 
Q 1441 -91 1130 -33 
Q 819 25 488 141 
L 488 750 
Q 750 597 1062 519 
Q 1375 441 1716 441 
Q 2309 441 2620 675 
Q 2931 909 2931 1356 
Q 2931 1769 2642 2001 
Q 2353 2234 1838 2234 
L 1294 2234 
L 1294 2753 
L 1863 2753 
Q 2328 2753 2575 2939 
Q 2822 3125 2822 3475 
Q 2822 3834 2567 4026 
Q 2313 4219 1838 4219 
Q 1578 4219 1281 4162 
Q 984 4106 628 3988 
L 628 4550 
Q 988 4650 1302 4700 
Q 1616 4750 1894 4750 
Q 2613 4750 3031 4423 
Q 3450 4097 3450 3541 
Q 3450 3153 3228 2886 
Q 3006 2619 2597 2516 
z
" id="DejaVuSans-33" transform="scale(0.015625)"/>
      </defs>
      <use xlink:href="#DejaVuSans-33"/>
     </g>
    </g>
   </g>
   <g id="text_5">
    <g clip-path="url(#pe2396b9f20)">
     <!-- 4 -->
     <g transform="translate(103.248881 77.213491)scale(0.12 -0.12)">
      <defs>
       <path d="M 2419 4116 
L 825 1625 
L 2419 1625 
L 2419 4116 
z
M 2253 4666 
L 3047 4666 
L 3047 1625 
L 3713 1625 
L 3713 1100 
L 3047 1100 
L 3047 0 
L 2419 0 
L 2419 1100 
L 313 1100 
L 313 1709 
L 2253 4666 
z
" id="DejaVuSans-34" transform="scale(0.015625)"/>
      </defs>
      <use xlink:href="#DejaVuSans-34"/>
     </g>
    </g>
   </g>
   <g id="text_6">
    <g clip-path="url(#pe2396b9f20)">
     <!-- 5 -->
     <g transform="translate(127.38034 80.328769)scale(0.12 -0.12)">
      <defs>
       <path d="M 691 4666 
L 3169 4666 
L 3169 4134 
L 1269 4134 
L 1269 2991 
Q 1406 3038 1543 3061 
Q 1681 3084 1819 3084 
Q 2600 3084 3056 2656 
Q 3513 2228 3513 1497 
Q 3513 744 3044 326 
Q 2575 -91 1722 -91 
Q 1428 -91 1123 -41 
Q 819 9 494 109 
L 494 744 
Q 775 591 1075 516 
Q 1375 441 1709 441 
Q 2250 441 2565 725 
Q 2881 1009 2881 1497 
Q 2881 1984 2565 2268 
Q 2250 2553 1709 2553 
Q 1456 2553 1204 2497 
Q 953 2441 691 2322 
L 691 4666 
z
" id="DejaVuSans-35" transform="scale(0.015625)"/>
      </defs>
      <use xlink:href="#DejaVuSans-35"/>
     </g>
    </g>
   </g>
   <g id="text_7">
    <g clip-path="url(#pe2396b9f20)">
     <!-- 6 -->
     <g transform="translate(155.149279 87.260047)scale(0.12 -0.12)">
      <defs>
       <path d="M 2113 2584 
Q 1688 2584 1439 2293 
Q 1191 2003 1191 1497 
Q 1191 994 1439 701 
Q 1688 409 2113 409 
Q 2538 409 2786 701 
Q 3034 994 3034 1497 
Q 3034 2003 2786 2293 
Q 2538 2584 2113 2584 
z
M 3366 4563 
L 3366 3988 
Q 3128 4100 2886 4159 
Q 2644 4219 2406 4219 
Q 1781 4219 1451 3797 
Q 1122 3375 1075 2522 
Q 1259 2794 1537 2939 
Q 1816 3084 2150 3084 
Q 2853 3084 3261 2657 
Q 3669 2231 3669 1497 
Q 3669 778 3244 343 
Q 2819 -91 2113 -91 
Q 1303 -91 875 529 
Q 447 1150 447 2328 
Q 447 3434 972 4092 
Q 1497 4750 2381 4750 
Q 2619 4750 2861 4703 
Q 3103 4656 3366 4563 
z
" id="DejaVuSans-36" transform="scale(0.015625)"/>
      </defs>
      <use xlink:href="#DejaVuSans-36"/>
     </g>
    </g>
   </g>
   <g id="text_8">
    <g clip-path="url(#pe2396b9f20)">
     <!-- 7 -->
     <g transform="translate(182.951888 105.566023)scale(0.12 -0.12)">
      <defs>
       <path d="M 525 4666 
L 3525 4666 
L 3525 4397 
L 1831 0 
L 1172 0 
L 2766 4134 
L 525 4134 
L 525 4666 
z
" id="DejaVuSans-37" transform="scale(0.015625)"/>
      </defs>
      <use xlink:href="#DejaVuSans-37"/>
     </g>
    </g>
   </g>
   <g id="text_9">
    <g clip-path="url(#pe2396b9f20)">
     <!-- 8 -->
     <g transform="translate(211.585448 127.441477)scale(0.12 -0.12)">
      <defs>
       <path d="M 2034 2216 
Q 1584 2216 1326 1975 
Q 1069 1734 1069 1313 
Q 1069 891 1326 650 
Q 1584 409 2034 409 
Q 2484 409 2743 651 
Q 3003 894 3003 1313 
Q 3003 1734 2745 1975 
Q 2488 2216 2034 2216 
z
M 1403 2484 
Q 997 2584 770 2862 
Q 544 3141 544 3541 
Q 544 4100 942 4425 
Q 1341 4750 2034 4750 
Q 2731 4750 3128 4425 
Q 3525 4100 3525 3541 
Q 3525 3141 3298 2862 
Q 3072 2584 2669 2484 
Q 3125 2378 3379 2068 
Q 3634 1759 3634 1313 
Q 3634 634 3220 271 
Q 2806 -91 2034 -91 
Q 1263 -91 848 271 
Q 434 634 434 1313 
Q 434 1759 690 2068 
Q 947 2378 1403 2484 
z
M 1172 3481 
Q 1172 3119 1398 2916 
Q 1625 2713 2034 2713 
Q 2441 2713 2670 2916 
Q 2900 3119 2900 3481 
Q 2900 3844 2670 4047 
Q 2441 4250 2034 4250 
Q 1625 4250 1398 4047 
Q 1172 3844 1172 3481 
z
" id="DejaVuSans-38" transform="scale(0.015625)"/>
      </defs>
      <use xlink:href="#DejaVuSans-38"/>
     </g>
    </g>
   </g>
   <g id="text_10">
    <g clip-path="url(#pe2396b9f20)">
     <!-- 9 -->
     <g transform="translate(241.329644 152.789016)scale(0.12 -0.12)">
      <defs>
       <path d="M 703 97 
L 703 672 
Q 941 559 1184 500 
Q 1428 441 1663 441 
Q 2288 441 2617 861 
Q 2947 1281 2994 2138 
Q 2813 1869 2534 1725 
Q 2256 1581 1919 1581 
Q 1219 1581 811 2004 
Q 403 2428 403 3163 
Q 403 3881 828 4315 
Q 1253 4750 1959 4750 
Q 2769 4750 3195 4129 
Q 3622 3509 3622 2328 
Q 3622 1225 3098 567 
Q 2575 -91 1691 -91 
Q 1453 -91 1209 -44 
Q 966 3 703 97 
z
M 1959 2075 
Q 2384 2075 2632 2365 
Q 2881 2656 2881 3163 
Q 2881 3666 2632 3958 
Q 2384 4250 1959 4250 
Q 1534 4250 1286 3958 
Q 1038 3666 1038 3163 
Q 1038 2656 1286 2365 
Q 1534 2075 1959 2075 
z
" id="DejaVuSans-39" transform="scale(0.015625)"/>
      </defs>
      <use xlink:href="#DejaVuSans-39"/>
     </g>
    </g>
   </g>
   <g id="text_11">
    <g clip-path="url(#pe2396b9f20)">
     <!-- 10 -->
     <g transform="translate(376.095248 163.268004)scale(0.12 -0.12)">
      <use xlink:href="#DejaVuSans-31"/>
      <use x="63.623047" xlink:href="#DejaVuSans-30"/>
     </g>
    </g>
   </g>
   <g id="text_12">
    <g clip-path="url(#pe2396b9f20)">
     <!-- 11 -->
     <g transform="translate(355.761848 162.113637)scale(0.12 -0.12)">
      <use xlink:href="#DejaVuSans-31"/>
      <use x="63.623047" xlink:href="#DejaVuSans-31"/>
     </g>
    </g>
   </g>
   <g id="text_13">
    <g clip-path="url(#pe2396b9f20)">
     <!-- 12 -->
     <g transform="translate(329.674627 160.773815)scale(0.12 -0.12)">
      <use xlink:href="#DejaVuSans-31"/>
      <use x="63.623047" xlink:href="#DejaVuSans-32"/>
     </g>
    </g>
   </g>
   <g id="text_14">
    <g clip-path="url(#pe2396b9f20)">
     <!-- 13 -->
     <g transform="translate(299.189742 159.709743)scale(0.12 -0.12)">
      <use xlink:href="#DejaVuSans-31"/>
      <use x="63.623047" xlink:href="#DejaVuSans-33"/>
     </g>
    </g>
   </g>
   <g id="text_15">
    <g clip-path="url(#pe2396b9f20)">
     <!-- 14 -->
     <g transform="translate(146.703953 71.12543)scale(0.12 -0.12)">
      <use xlink:href="#DejaVuSans-31"/>
      <use x="63.623047" xlink:href="#DejaVuSans-34"/>
     </g>
    </g>
   </g>
   <g id="text_16">
    <g clip-path="url(#pe2396b9f20)">
     <!-- 15 -->
     <g transform="translate(235.487348 287.802886)scale(0.12 -0.12)">
      <use xlink:href="#DejaVuSans-31"/>
      <use x="63.623047" xlink:href="#DejaVuSans-35"/>
     </g>
    </g>
   </g>
   <g id="text_17">
    <g clip-path="url(#pe2396b9f20)">
     <!-- 16 -->
     <g transform="translate(242.452713 273.938333)scale(0.12 -0.12)">
      <use xlink:href="#DejaVuSans-31"/>
      <use x="63.623047" xlink:href="#DejaVuSans-36"/>
     </g>
    </g>
   </g>
   <g id="text_18">
    <g clip-path="url(#pe2396b9f20)">
     <!-- 17 -->
     <g transform="translate(249.191587 256.193055)scale(0.12 -0.12)">
      <use xlink:href="#DejaVuSans-31"/>
      <use x="63.623047" xlink:href="#DejaVuSans-37"/>
     </g>
    </g>
   </g>
   <g id="text_19">
    <g clip-path="url(#pe2396b9f20)">
     <!-- 18 -->
     <g transform="translate(252.680521 234.754604)scale(0.12 -0.12)">
      <use xlink:href="#DejaVuSans-31"/>
      <use x="63.623047" xlink:href="#DejaVuSans-38"/>
     </g>
    </g>
   </g>
   <g id="text_20">
    <g clip-path="url(#pe2396b9f20)">
     <!-- 19 -->
     <g transform="translate(252.293936 209.724852)scale(0.12 -0.12)">
      <use xlink:href="#DejaVuSans-31"/>
      <use x="63.623047" xlink:href="#DejaVuSans-39"/>
     </g>
    </g>
   </g>
   <g id="text_21">
    <g clip-path="url(#pe2396b9f20)">
     <!-- 20 -->
     <g transform="translate(247.571743 182.166044)scale(0.12 -0.12)">
      <use xlink:href="#DejaVuSans-32"/>
      <use x="63.623047" xlink:href="#DejaVuSans-30"/>
     </g>
    </g>
   </g>
   <g id="text_22">
    <g clip-path="url(#pe2396b9f20)">
     <!-- 21 -->
     <g transform="translate(264.450202 159.256866)scale(0.12 -0.12)">
      <use xlink:href="#DejaVuSans-32"/>
      <use x="63.623047" xlink:href="#DejaVuSans-31"/>
     </g>
    </g>
   </g>
   <g id="text_23">
    <g clip-path="url(#pe2396b9f20)">
     <!-- 22 -->
     <g transform="translate(237.752199 166.506536)scale(0.12 -0.12)">
      <use xlink:href="#DejaVuSans-32"/>
      <use x="63.623047" xlink:href="#DejaVuSans-32"/>
     </g>
    </g>
   </g>
   <g id="text_24">
    <g clip-path="url(#pe2396b9f20)">
     <!-- 23 -->
     <g transform="translate(208.419131 169.734269)scale(0.12 -0.12)">
      <use xlink:href="#DejaVuSans-32"/>
      <use x="63.623047" xlink:href="#DejaVuSans-33"/>
     </g>
    </g>
   </g>
   <g id="text_25">
    <g clip-path="url(#pe2396b9f20)">
     <!-- 24 -->
     <g transform="translate(205.023026 147.477585)scale(0.12 -0.12)">
      <use xlink:href="#DejaVuSans-32"/>
      <use x="63.623047" xlink:href="#DejaVuSans-34"/>
     </g>
    </g>
   </g>
   <g id="text_26">
    <g clip-path="url(#pe2396b9f20)">
     <!-- 25 -->
     <g transform="translate(181.580411 157.716444)scale(0.12 -0.12)">
      <use xlink:href="#DejaVuSans-32"/>
      <use x="63.623047" xlink:href="#DejaVuSans-35"/>
     </g>
    </g>
   </g>
   <g id="text_27">
    <g clip-path="url(#pe2396b9f20)">
     <!-- 26 -->
     <g transform="translate(169.019792 171.033306)scale(0.12 -0.12)">
      <use xlink:href="#DejaVuSans-32"/>
      <use x="63.623047" xlink:href="#DejaVuSans-36"/>
     </g>
    </g>
   </g>
   <g id="text_28">
    <g clip-path="url(#pe2396b9f20)">
     <!-- 27 -->
     <g transform="translate(185.020673 176.8033)scale(0.12 -0.12)">
      <use xlink:href="#DejaVuSans-32"/>
      <use x="63.623047" xlink:href="#DejaVuSans-37"/>
     </g>
    </g>
   </g>
   <g id="text_29">
    <g clip-path="url(#pe2396b9f20)">
     <!-- 28 -->
     <g transform="translate(202.629783 186.623092)scale(0.12 -0.12)">
      <use xlink:href="#DejaVuSans-32"/>
      <use x="63.623047" xlink:href="#DejaVuSans-38"/>
     </g>
    </g>
   </g>
   <g id="text_30">
    <g clip-path="url(#pe2396b9f20)">
     <!-- 29 -->
     <g transform="translate(266.911598 67.875614)scale(0.12 -0.12)">
      <use xlink:href="#DejaVuSans-32"/>
      <use x="63.623047" xlink:href="#DejaVuSans-39"/>
     </g>
    </g>
   </g>
   <g id="text_31">
    <!-- Watts Strogatz Graph -->
    <g transform="translate(171.734062 35.472)scale(0.12 -0.12)">
     <defs>
      <path d="M 213 4666 
L 850 4666 
L 1831 722 
L 2809 4666 
L 3519 4666 
L 4500 722 
L 5478 4666 
L 6119 4666 
L 4947 0 
L 4153 0 
L 3169 4050 
L 2175 0 
L 1381 0 
L 213 4666 
z
" id="DejaVuSans-57" transform="scale(0.015625)"/>
      <path d="M 2194 1759 
Q 1497 1759 1228 1600 
Q 959 1441 959 1056 
Q 959 750 1161 570 
Q 1363 391 1709 391 
Q 2188 391 2477 730 
Q 2766 1069 2766 1631 
L 2766 1759 
L 2194 1759 
z
M 3341 1997 
L 3341 0 
L 2766 0 
L 2766 531 
Q 2569 213 2275 61 
Q 1981 -91 1556 -91 
Q 1019 -91 701 211 
Q 384 513 384 1019 
Q 384 1609 779 1909 
Q 1175 2209 1959 2209 
L 2766 2209 
L 2766 2266 
Q 2766 2663 2505 2880 
Q 2244 3097 1772 3097 
Q 1472 3097 1187 3025 
Q 903 2953 641 2809 
L 641 3341 
Q 956 3463 1253 3523 
Q 1550 3584 1831 3584 
Q 2591 3584 2966 3190 
Q 3341 2797 3341 1997 
z
" id="DejaVuSans-61" transform="scale(0.015625)"/>
      <path d="M 1172 4494 
L 1172 3500 
L 2356 3500 
L 2356 3053 
L 1172 3053 
L 1172 1153 
Q 1172 725 1289 603 
Q 1406 481 1766 481 
L 2356 481 
L 2356 0 
L 1766 0 
Q 1100 0 847 248 
Q 594 497 594 1153 
L 594 3053 
L 172 3053 
L 172 3500 
L 594 3500 
L 594 4494 
L 1172 4494 
z
" id="DejaVuSans-74" transform="scale(0.015625)"/>
      <path d="M 2834 3397 
L 2834 2853 
Q 2591 2978 2328 3040 
Q 2066 3103 1784 3103 
Q 1356 3103 1142 2972 
Q 928 2841 928 2578 
Q 928 2378 1081 2264 
Q 1234 2150 1697 2047 
L 1894 2003 
Q 2506 1872 2764 1633 
Q 3022 1394 3022 966 
Q 3022 478 2636 193 
Q 2250 -91 1575 -91 
Q 1294 -91 989 -36 
Q 684 19 347 128 
L 347 722 
Q 666 556 975 473 
Q 1284 391 1588 391 
Q 1994 391 2212 530 
Q 2431 669 2431 922 
Q 2431 1156 2273 1281 
Q 2116 1406 1581 1522 
L 1381 1569 
Q 847 1681 609 1914 
Q 372 2147 372 2553 
Q 372 3047 722 3315 
Q 1072 3584 1716 3584 
Q 2034 3584 2315 3537 
Q 2597 3491 2834 3397 
z
" id="DejaVuSans-73" transform="scale(0.015625)"/>
      <path id="DejaVuSans-20" transform="scale(0.015625)"/>
      <path d="M 3425 4513 
L 3425 3897 
Q 3066 4069 2747 4153 
Q 2428 4238 2131 4238 
Q 1616 4238 1336 4038 
Q 1056 3838 1056 3469 
Q 1056 3159 1242 3001 
Q 1428 2844 1947 2747 
L 2328 2669 
Q 3034 2534 3370 2195 
Q 3706 1856 3706 1288 
Q 3706 609 3251 259 
Q 2797 -91 1919 -91 
Q 1588 -91 1214 -16 
Q 841 59 441 206 
L 441 856 
Q 825 641 1194 531 
Q 1563 422 1919 422 
Q 2459 422 2753 634 
Q 3047 847 3047 1241 
Q 3047 1584 2836 1778 
Q 2625 1972 2144 2069 
L 1759 2144 
Q 1053 2284 737 2584 
Q 422 2884 422 3419 
Q 422 4038 858 4394 
Q 1294 4750 2059 4750 
Q 2388 4750 2728 4690 
Q 3069 4631 3425 4513 
z
" id="DejaVuSans-53" transform="scale(0.015625)"/>
      <path d="M 2631 2963 
Q 2534 3019 2420 3045 
Q 2306 3072 2169 3072 
Q 1681 3072 1420 2755 
Q 1159 2438 1159 1844 
L 1159 0 
L 581 0 
L 581 3500 
L 1159 3500 
L 1159 2956 
Q 1341 3275 1631 3429 
Q 1922 3584 2338 3584 
Q 2397 3584 2469 3576 
Q 2541 3569 2628 3553 
L 2631 2963 
z
" id="DejaVuSans-72" transform="scale(0.015625)"/>
      <path d="M 1959 3097 
Q 1497 3097 1228 2736 
Q 959 2375 959 1747 
Q 959 1119 1226 758 
Q 1494 397 1959 397 
Q 2419 397 2687 759 
Q 2956 1122 2956 1747 
Q 2956 2369 2687 2733 
Q 2419 3097 1959 3097 
z
M 1959 3584 
Q 2709 3584 3137 3096 
Q 3566 2609 3566 1747 
Q 3566 888 3137 398 
Q 2709 -91 1959 -91 
Q 1206 -91 779 398 
Q 353 888 353 1747 
Q 353 2609 779 3096 
Q 1206 3584 1959 3584 
z
" id="DejaVuSans-6f" transform="scale(0.015625)"/>
      <path d="M 2906 1791 
Q 2906 2416 2648 2759 
Q 2391 3103 1925 3103 
Q 1463 3103 1205 2759 
Q 947 2416 947 1791 
Q 947 1169 1205 825 
Q 1463 481 1925 481 
Q 2391 481 2648 825 
Q 2906 1169 2906 1791 
z
M 3481 434 
Q 3481 -459 3084 -895 
Q 2688 -1331 1869 -1331 
Q 1566 -1331 1297 -1286 
Q 1028 -1241 775 -1147 
L 775 -588 
Q 1028 -725 1275 -790 
Q 1522 -856 1778 -856 
Q 2344 -856 2625 -561 
Q 2906 -266 2906 331 
L 2906 616 
Q 2728 306 2450 153 
Q 2172 0 1784 0 
Q 1141 0 747 490 
Q 353 981 353 1791 
Q 353 2603 747 3093 
Q 1141 3584 1784 3584 
Q 2172 3584 2450 3431 
Q 2728 3278 2906 2969 
L 2906 3500 
L 3481 3500 
L 3481 434 
z
" id="DejaVuSans-67" transform="scale(0.015625)"/>
      <path d="M 353 3500 
L 3084 3500 
L 3084 2975 
L 922 459 
L 3084 459 
L 3084 0 
L 275 0 
L 275 525 
L 2438 3041 
L 353 3041 
L 353 3500 
z
" id="DejaVuSans-7a" transform="scale(0.015625)"/>
      <path d="M 3809 666 
L 3809 1919 
L 2778 1919 
L 2778 2438 
L 4434 2438 
L 4434 434 
Q 4069 175 3628 42 
Q 3188 -91 2688 -91 
Q 1594 -91 976 548 
Q 359 1188 359 2328 
Q 359 3472 976 4111 
Q 1594 4750 2688 4750 
Q 3144 4750 3555 4637 
Q 3966 4525 4313 4306 
L 4313 3634 
Q 3963 3931 3569 4081 
Q 3175 4231 2741 4231 
Q 1884 4231 1454 3753 
Q 1025 3275 1025 2328 
Q 1025 1384 1454 906 
Q 1884 428 2741 428 
Q 3075 428 3337 486 
Q 3600 544 3809 666 
z
" id="DejaVuSans-47" transform="scale(0.015625)"/>
      <path d="M 1159 525 
L 1159 -1331 
L 581 -1331 
L 581 3500 
L 1159 3500 
L 1159 2969 
Q 1341 3281 1617 3432 
Q 1894 3584 2278 3584 
Q 2916 3584 3314 3078 
Q 3713 2572 3713 1747 
Q 3713 922 3314 415 
Q 2916 -91 2278 -91 
Q 1894 -91 1617 61 
Q 1341 213 1159 525 
z
M 3116 1747 
Q 3116 2381 2855 2742 
Q 2594 3103 2138 3103 
Q 1681 3103 1420 2742 
Q 1159 2381 1159 1747 
Q 1159 1113 1420 752 
Q 1681 391 2138 391 
Q 2594 391 2855 752 
Q 3116 1113 3116 1747 
z
" id="DejaVuSans-70" transform="scale(0.015625)"/>
      <path d="M 3513 2113 
L 3513 0 
L 2938 0 
L 2938 2094 
Q 2938 2591 2744 2837 
Q 2550 3084 2163 3084 
Q 1697 3084 1428 2787 
Q 1159 2491 1159 1978 
L 1159 0 
L 581 0 
L 581 4863 
L 1159 4863 
L 1159 2956 
Q 1366 3272 1645 3428 
Q 1925 3584 2291 3584 
Q 2894 3584 3203 3211 
Q 3513 2838 3513 2113 
z
" id="DejaVuSans-68" transform="scale(0.015625)"/>
     </defs>
     <use xlink:href="#DejaVuSans-57"/>
     <use x="92.501953" xlink:href="#DejaVuSans-61"/>
     <use x="153.78125" xlink:href="#DejaVuSans-74"/>
     <use x="192.990234" xlink:href="#DejaVuSans-74"/>
     <use x="232.199219" xlink:href="#DejaVuSans-73"/>
     <use x="284.298828" xlink:href="#DejaVuSans-20"/>
     <use x="316.085938" xlink:href="#DejaVuSans-53"/>
     <use x="379.5625" xlink:href="#DejaVuSans-74"/>
     <use x="418.771484" xlink:href="#DejaVuSans-72"/>
     <use x="457.634766" xlink:href="#DejaVuSans-6f"/>
     <use x="518.816406" xlink:href="#DejaVuSans-67"/>
     <use x="582.292969" xlink:href="#DejaVuSans-61"/>
     <use x="643.572266" xlink:href="#DejaVuSans-74"/>
     <use x="682.78125" xlink:href="#DejaVuSans-7a"/>
     <use x="735.271484" xlink:href="#DejaVuSans-20"/>
     <use x="767.058594" xlink:href="#DejaVuSans-47"/>
     <use x="844.548828" xlink:href="#DejaVuSans-72"/>
     <use x="885.662109" xlink:href="#DejaVuSans-61"/>
     <use x="946.941406" xlink:href="#DejaVuSans-70"/>
     <use x="1010.417969" xlink:href="#DejaVuSans-68"/>
    </g>
   </g>
  </g>
 </g>
 <defs>
  <clipPath id="pe2396b9f20">
   <rect height="266.112" width="357.12" x="57.6" y="41.472"/>
  </clipPath>
 </defs>
</svg>
